# xmcd
#
# Track frame offsets:
#	150
#	22466
#	39059
#	59782
#	75583
#	91827
#	105730
#	123369
#	138583
#	151849
#	171271
#	188332
#	207811
#	230358
#	244138
#	260439
#	279434
#
# Disc length: 3893 seconds
#
# Revision: 1
# Processed by: cddbd v1.5.2PL0 Copyright (c) Steve Scherf et al.
# Submitted via: audiograbber 1.83.01
#
DISCID=e10f3311
DTITLE=Lee Ann Womack - The Definitive Collection CD1
DYEAR=2013
DGENRE=Country
TTITLE0=I Hope You Dance (with Sons Of The Desert)
TTITLE1=I'll Think Of A Reason Later
TTITLE2=I Hate Myself In The Morning
TTITLE3=Does My Ring Burn Your Finger
TTITLE4=The Fool
TTITLE5=After I Fall
TTITLE6=There's More Where That Came From
TTITLE7=A Man With Eighteen Wheels
TTITLE8=Lord I Hope This Day Is Good
TTITLE9=There Is A God
TTITLE10=Finding My Way Back Home
TTITLE11=A Little Past Little Rock
TTITLE12=I Need You
TTITLE13=The Wrong Girl
TTITLE14=Why They Call It Falling
TTITLE15=Ashes By Now
TTITLE16=I'll Never Be Free (with Willie Nelson)
EXTD=
EXTT0=
EXTT1=
EXTT2=
EXTT3=
EXTT4=
EXTT5=
EXTT6=
EXTT7=
EXTT8=
EXTT9=
EXTT10=
EXTT11=
EXTT12=
EXTT13=
EXTT14=
EXTT15=
EXTT16=
PLAYORDER=
